<svg xmlns="http://www.w3.org/2000/svg" viewBox="0 0 80 80"><defs><style>.cls-1{fill:none;}.cls-2{fill:#fdd5a9;}.cls-3{fill:#e9a0a7;}.cls-4{fill:#1e1e1e;}.cls-5{fill:#fff;}</style></defs><g id="Layer_2" data-name="Layer 2"><g id="Layer_1-2" data-name="Layer 1"><rect class="cls-1" width="80" height="80"/><path class="cls-2" d="M33.1,43.59H8v-.07c6.35-2.06,11.15-6.65,11.15-14,0-3.36-1.07-7.45-5.5-11.35A14.19,14.19,0,0,0,8,29.55V46.18a14.19,14.19,0,0,0,28.37,0V42.86A7.17,7.17,0,0,1,33.1,43.59Z"/><path class="cls-3" d="M22.18,15.36a14.14,14.14,0,0,0-8.49,2.82c4.43,3.9,5.5,8,5.5,11.35,0,7.34-4.8,11.93-11.15,14v.07H33.1a7.17,7.17,0,0,0,3.27-.73V29.55A14.19,14.19,0,0,0,22.18,15.36Z"/><path class="cls-4" d="M29,49.13H10.32a.73.73,0,0,1-.56-.28.7.7,0,0,1-.11-.61,5.6,5.6,0,0,1,3.08-3.6,8.73,8.73,0,0,1,3.38-.51,6.08,6.08,0,0,1,5.79-3.5h0a6.19,6.19,0,0,1,1.9.28.69.69,0,0,1,.46.87.7.7,0,0,1-.87.47,4.86,4.86,0,0,0-1.5-.22h0a4.56,4.56,0,0,0-4.64,3,.69.69,0,0,1-.75.5,7.85,7.85,0,0,0-3.25.37,4,4,0,0,0-1.89,1.8H29a.7.7,0,0,1,0,1.4Z"/><path class="cls-4" d="M47.59,58.08H36.06a.72.72,0,0,1-.56-.27l-3.1-4a.71.71,0,0,1-.07-.74A.69.69,0,0,1,33,52.7H50.72a.71.71,0,0,1,.63.39.73.73,0,0,1-.08.74c-1.79,2.3-3.13,4-3.13,4A.7.7,0,0,1,47.59,58.08ZM36.4,56.68H47.25l2-2.58H34.39Z"/><line class="cls-5" x1="34.29" y1="65.59" x2="49.39" y2="65.59"/><path class="cls-4" d="M49.39,66.29H34.29a.7.7,0,0,1,0-1.4h15.1a.7.7,0,1,1,0,1.4Z"/><path class="cls-4" d="M49.39,72H34.29a.7.7,0,0,1-.7-.7V65.59a.7.7,0,0,1,.7-.7h15.1a.7.7,0,0,1,.7.7v5.68A.71.71,0,0,1,49.39,72ZM35,70.57h13.7V66.29H35Z"/><path class="cls-4" d="M47.71,58.08H36a.72.72,0,0,1-.56-.27C35,57.24,24.64,44,23.35,42.28c-3.72-5-5.6-9.82-5.6-14.46C17.75,17,28.56,8.13,41.84,8.13S65.92,17,65.92,27.86c0,4.64-1.88,9.5-5.6,14.46C59,44,48.7,57.25,48.26,57.81A.7.7,0,0,1,47.71,58.08Zm-11.4-1.4H47.37C48.88,54.75,58,43,59.2,41.48c3.53-4.71,5.32-9.29,5.32-13.62,0-10.11-10.17-18.33-22.68-18.33S19.15,17.74,19.15,27.82c0,4.33,1.79,8.91,5.32,13.62C25.65,43,34.8,54.74,36.31,56.68Z"/><path class="cls-4" d="M35.87,53.81a.7.7,0,0,1-.62-.38C33,49,29.84,43.05,29.29,42A31.89,31.89,0,0,1,25.58,27.7c0-10.79,7.29-19.57,16.26-19.57s16.26,8.8,16.26,19.6A31.83,31.83,0,0,1,54.39,42c-.43.85-2.38,4.59-6,11.44a.7.7,0,1,1-1.24-.65c3.53-6.74,5.53-10.59,6-11.42A30.48,30.48,0,0,0,56.7,27.73c0-10-6.67-18.2-14.86-18.2S27,17.68,27,27.7a30.38,30.38,0,0,0,3.56,13.63c.54,1.09,3.66,7.06,6,11.45a.7.7,0,0,1-.3.95A.72.72,0,0,1,35.87,53.81Z"/><path class="cls-4" d="M44.3,53.81l-.14,0a.7.7,0,0,1-.54-.83l2.46-11.42a68.68,68.68,0,0,0,1.48-13.81c0-10.72-3-18.2-5.72-18.2S36.11,17,36.11,27.7A68,68,0,0,0,37.6,41.5c.21,1,1.39,6.5,2.28,10.63l.18.83a.7.7,0,0,1-1.37.29l-.18-.83c-.89-4.13-2.07-9.59-2.28-10.64A69.23,69.23,0,0,1,34.71,27.7c0-9.49,2.5-19.57,7.13-19.57S49,18.23,49,27.73a69.93,69.93,0,0,1-1.51,14.09c-.23,1.11-1.56,7.26-2.46,11.43A.71.71,0,0,1,44.3,53.81Z"/><line class="cls-5" x1="35.97" y1="57.38" x2="35.97" y2="65.59"/><path class="cls-4" d="M36,66.29a.7.7,0,0,1-.71-.7V57.38a.71.71,0,0,1,1.41,0v8.21A.7.7,0,0,1,36,66.29Z"/><line class="cls-5" x1="47.71" y1="57.38" x2="47.71" y2="65.59"/><path class="cls-4" d="M47.71,66.29a.7.7,0,0,1-.7-.7V57.38a.7.7,0,0,1,1.4,0v8.21A.7.7,0,0,1,47.71,66.29Z"/><path class="cls-4" d="M71.27,62H55.36a.74.74,0,0,1-.55-.26.73.73,0,0,1-.14-.59,3.7,3.7,0,0,1,2.38-2.8A6.45,6.45,0,0,1,59.48,58a4.65,4.65,0,0,1,4.36-2.57h0A4.61,4.61,0,0,1,68,57.82a4.11,4.11,0,0,1,4,3.38.75.75,0,0,1-.17.56A.71.71,0,0,1,71.27,62Zm-14.9-1.4H70.29a2.87,2.87,0,0,0-2.73-1.4.7.7,0,0,1-.66-.45,3.27,3.27,0,0,0-3-2h0a3.18,3.18,0,0,0-3.22,2.09.7.7,0,0,1-.75.5,5.75,5.75,0,0,0-2.29.26A2.47,2.47,0,0,0,56.37,60.6Z"/></g></g></svg>