<svg xmlns="http://www.w3.org/2000/svg" viewBox="0 0 80 80"><defs><style>.cls-1{fill:none;}.cls-2{fill:#e9a0a7;}.cls-3{fill:#fdd5a9;}.cls-4{fill:#1e1e1e;}</style></defs><g id="Layer_2" data-name="Layer 2"><g id="Layer_1-2" data-name="Layer 1"><rect class="cls-1" width="80" height="80"/><path class="cls-2" d="M23.55,49.06H19.24a3.77,3.77,0,0,1-2.31-1l-8-8a3.74,3.74,0,0,1-1-2.31V30.27a3.6,3.6,0,0,1,3.45-3.54c3.12,0,5.12,3.47,7.7,10.46Z"/><path class="cls-3" d="M30,66.48a3.63,3.63,0,0,1,.25,1.38,3.91,3.91,0,0,1-3.91,3.87H13.53A5.53,5.53,0,0,1,8,66.2V30.45c0-.06,0-.12,0-.18v7.56a3.74,3.74,0,0,0,1,2.31l8,8a3.77,3.77,0,0,0,2.31,1h4.31Z"/><path class="cls-4" d="M49.07,72a1.83,1.83,0,0,1-1.74-1.28L46.79,69a1.84,1.84,0,0,1,.13-1.4,1.82,1.82,0,0,1,1.06-.9l4-1.26a.71.71,0,0,1,.88.46.7.7,0,0,1-.46.88l-4,1.26a.4.4,0,0,0-.25.21.36.36,0,0,0,0,.32l.53,1.69a.43.43,0,0,0,.54.28l9.58-3a.7.7,0,0,1,.42,1.34l-9.58,3A2.09,2.09,0,0,1,49.07,72Z"/><path class="cls-4" d="M65.75,66.8a.69.69,0,0,1-.66-.49.7.7,0,0,1,.46-.88l4-1.26A.44.44,0,0,0,69.8,64a.45.45,0,0,0,0-.32L69.29,62a.42.42,0,0,0-.53-.28l-9.58,3a.7.7,0,0,1-.88-.45.71.71,0,0,1,.46-.88l9.58-3a1.83,1.83,0,0,1,2.29,1.19l.53,1.69a1.8,1.8,0,0,1-.12,1.4A1.76,1.76,0,0,1,70,65.5l-4,1.27A.71.71,0,0,1,65.75,66.8Z"/><path class="cls-4" d="M68.92,71.93a2,2,0,0,1-.54-.08L48,65.59h0a1.84,1.84,0,0,1-1.08-.89,1.82,1.82,0,0,1-.13-1.39l.52-1.7a1.84,1.84,0,0,1,2.29-1.21L70,66.66a1.84,1.84,0,0,1,1.21,2.28l-.53,1.7A1.83,1.83,0,0,1,68.92,71.93ZM48.39,64.25l20.4,6.26a.44.44,0,0,0,.54-.28l.52-1.7a.44.44,0,0,0,0-.32.46.46,0,0,0-.25-.21l-20.4-6.26a.43.43,0,0,0-.54.28l-.52,1.7a.44.44,0,0,0,0,.32.44.44,0,0,0,.25.21Z"/><path class="cls-4" d="M58.85,61.49a6.6,6.6,0,0,1-3.58-1A7.1,7.1,0,0,1,52.22,54a8.34,8.34,0,0,1,.7-2.85,25.48,25.48,0,0,1,2.13-3.67c1.52-2.32,3.09-4.73,2.32-6.26a.7.7,0,0,1,.17-.85.69.69,0,0,1,.87,0,4.83,4.83,0,0,1,1.7,4l0,.57a9.8,9.8,0,0,0,.28,3.61A6,6,0,0,1,62.92,46a.71.71,0,0,1,.87.16.69.69,0,0,1,0,.87,2.55,2.55,0,0,0-.34,2.89c.06.13.11.25.16.39.15.38.32.76.49,1.14a17.25,17.25,0,0,1,.9,2.44,6.13,6.13,0,0,1-1.52,5.74,6.45,6.45,0,0,1-4.58,1.91h-.08Zm.07-.7h0Zm-.23-17.06a20.56,20.56,0,0,1-2.47,4.53,26.66,26.66,0,0,0-2,3.45,7.16,7.16,0,0,0-.58,2.38A5.68,5.68,0,0,0,56,59.28a5.17,5.17,0,0,0,2.88.81h0a5.1,5.1,0,0,0,3.59-1.47,4.84,4.84,0,0,0,1.18-4.44A15.35,15.35,0,0,0,62.84,52c-.17-.4-.35-.8-.5-1.21l-.15-.35a4.34,4.34,0,0,1-.41-1.5c-.07.12-.14.25-.2.38a4.37,4.37,0,0,0-.33,1.24.69.69,0,0,1-.52.6.72.72,0,0,1-.75-.27c-1.44-2.07-1.37-3.86-1.29-5.94l0-.57A6,6,0,0,0,58.69,43.73Z"/><path class="cls-4" d="M25.07,18.9H8.7A.7.7,0,0,1,8,18a4.39,4.39,0,0,1,2.42-2.82,6.29,6.29,0,0,1,2.51-.4,4.79,4.79,0,0,1,4.5-2.64,4.69,4.69,0,0,1,4.23,2.49,4.2,4.2,0,0,1,4.07,3.47.66.66,0,0,1-.17.55A.69.69,0,0,1,25.07,18.9ZM9.79,17.5h14.3A3,3,0,0,0,21.25,16a.71.71,0,0,1-.66-.46,3.35,3.35,0,0,0-3.14-2h0a3.26,3.26,0,0,0-3.33,2.16.7.7,0,0,1-.76.5,5.79,5.79,0,0,0-2.36.27A2.73,2.73,0,0,0,9.79,17.5Z"/><path class="cls-4" d="M52.68,56.49H12a.7.7,0,0,1-.61-1.05l23.83-42a.69.69,0,0,1,.6-.36h0a.7.7,0,0,1,.6.35l20,33.78a.71.71,0,0,1-.25,1,.69.69,0,0,1-1-.25L35.85,15.17,13.21,55.09H52.68a.7.7,0,0,1,0,1.4Z"/><path class="cls-4" d="M50.35,56.49h-28a.68.68,0,0,1-.6-.35.71.71,0,0,1,0-.69l13.71-25a.69.69,0,0,1,.61-.37.76.76,0,0,1,.61.36L51,55.44a.71.71,0,0,1-.61,1.05Zm-26.79-1.4H49.14l-13-22.91Z"/><path class="cls-4" d="M36.07,55.66a.7.7,0,0,1-.7-.7V30.74a.7.7,0,0,1,1.4,0V55A.7.7,0,0,1,36.07,55.66Z"/><path class="cls-4" d="M32.85,19.67a.72.72,0,0,1-.34-.09.69.69,0,0,1-.27-.95L37.85,8.41a.7.7,0,1,1,1.22.67L33.46,19.31A.68.68,0,0,1,32.85,19.67Z"/><path class="cls-4" d="M38.89,19.67a.69.69,0,0,1-.61-.36L32.53,9.1a.7.7,0,0,1,.26-.95.71.71,0,0,1,1,.26L39.5,18.63a.7.7,0,0,1-.27.95A.72.72,0,0,1,38.89,19.67Z"/><path class="cls-4" d="M61.87,23.05A6.19,6.19,0,0,1,60.23,10.9a.7.7,0,0,1,.38,1.34A4.8,4.8,0,0,0,59.52,21a4.79,4.79,0,0,0,6.74-2.25.7.7,0,0,1,.92-.35.69.69,0,0,1,.36.92,6.13,6.13,0,0,1-4,3.47A5.94,5.94,0,0,1,61.87,23.05Z"/><path class="cls-4" d="M65.44,20a6.19,6.19,0,0,1-5.66-8.68.69.69,0,0,1,.92-.36.7.7,0,0,1,.36.92,4.79,4.79,0,0,0,5.66,6.54.7.7,0,1,1,.37,1.35A6.25,6.25,0,0,1,65.44,20Z"/></g></g></svg>